<mxfile host="app.diagrams.net" modified="2023-04-09T09:45:42.848Z" agent="Mozilla/5.0 (Windows NT 10.0; Win64; x64) AppleWebKit/537.36 (KHTML, like Gecko) Chrome/111.0.0.0 Safari/537.36" etag="siF32yhtukk3_RZ45BnM" version="21.1.5" type="device">
  <diagram name="PÃ¡gina-1" id="985l9z_6Amm3oLjtq4Tv">
    <mxGraphModel dx="880" dy="452" grid="1" gridSize="10" guides="1" tooltips="1" connect="1" arrows="1" fold="1" page="1" pageScale="1" pageWidth="827" pageHeight="1169" math="0" shadow="0">
      <root>
        <mxCell id="0" />
        <mxCell id="1" parent="0" />
        <mxCell id="pUqtmgYr6xLEjXZ_9hGm-13" style="edgeStyle=orthogonalEdgeStyle;rounded=0;orthogonalLoop=1;jettySize=auto;html=1;entryX=1;entryY=0.5;entryDx=0;entryDy=0;endArrow=ERmandOne;endFill=0;" parent="1" source="pUqtmgYr6xLEjXZ_9hGm-12" target="pUqtmgYr6xLEjXZ_9hGm-34" edge="1">
          <mxGeometry relative="1" as="geometry">
            <mxPoint x="504" y="110" as="targetPoint" />
            <Array as="points">
              <mxPoint x="760" y="75" />
            </Array>
          </mxGeometry>
        </mxCell>
        <mxCell id="pUqtmgYr6xLEjXZ_9hGm-14" style="edgeStyle=orthogonalEdgeStyle;rounded=0;orthogonalLoop=1;jettySize=auto;html=1;entryX=0.5;entryY=0;entryDx=0;entryDy=0;endArrow=ERzeroToMany;endFill=0;exitX=0.5;exitY=1;exitDx=0;exitDy=0;" parent="1" source="pUqtmgYr6xLEjXZ_9hGm-12" target="pUqtmgYr6xLEjXZ_9hGm-39" edge="1">
          <mxGeometry relative="1" as="geometry">
            <mxPoint x="740" y="410" as="targetPoint" />
            <Array as="points">
              <mxPoint x="760" y="270" />
            </Array>
          </mxGeometry>
        </mxCell>
        <mxCell id="bmzMhD-E-mMl2qZRChlY-1" style="edgeStyle=orthogonalEdgeStyle;rounded=0;orthogonalLoop=1;jettySize=auto;html=1;entryX=0;entryY=0.5;entryDx=0;entryDy=0;endArrow=ERzeroToMany;endFill=0;" parent="1" source="pUqtmgYr6xLEjXZ_9hGm-12" target="pUqtmgYr6xLEjXZ_9hGm-47" edge="1">
          <mxGeometry relative="1" as="geometry" />
        </mxCell>
        <mxCell id="pUqtmgYr6xLEjXZ_9hGm-12" value="manageIssue" style="rhombus;whiteSpace=wrap;html=1;" parent="1" vertex="1">
          <mxGeometry x="720" y="190" width="80" height="80" as="geometry" />
        </mxCell>
        <mxCell id="pUqtmgYr6xLEjXZ_9hGm-19" value="" style="edgeStyle=orthogonalEdgeStyle;rounded=0;orthogonalLoop=1;jettySize=auto;html=1;endArrow=ERzeroToMany;endFill=0;" parent="1" source="pUqtmgYr6xLEjXZ_9hGm-17" edge="1">
          <mxGeometry relative="1" as="geometry">
            <mxPoint x="680" y="440" as="targetPoint" />
          </mxGeometry>
        </mxCell>
        <mxCell id="pUqtmgYr6xLEjXZ_9hGm-59" value="" style="edgeStyle=orthogonalEdgeStyle;rounded=0;orthogonalLoop=1;jettySize=auto;html=1;endArrow=ERmandOne;endFill=0;" parent="1" source="pUqtmgYr6xLEjXZ_9hGm-17" edge="1">
          <mxGeometry relative="1" as="geometry">
            <mxPoint x="413" y="441" as="targetPoint" />
          </mxGeometry>
        </mxCell>
        <mxCell id="pUqtmgYr6xLEjXZ_9hGm-17" value="has" style="rhombus;whiteSpace=wrap;html=1;" parent="1" vertex="1">
          <mxGeometry x="514" y="431" width="80" height="80" as="geometry" />
        </mxCell>
        <mxCell id="pUqtmgYr6xLEjXZ_9hGm-21" style="edgeStyle=orthogonalEdgeStyle;rounded=0;orthogonalLoop=1;jettySize=auto;html=1;entryX=1;entryY=0.5;entryDx=0;entryDy=0;endArrow=ERmandOne;endFill=0;" parent="1" source="pUqtmgYr6xLEjXZ_9hGm-20" target="pUqtmgYr6xLEjXZ_9hGm-36" edge="1">
          <mxGeometry relative="1" as="geometry">
            <mxPoint x="474" y="140" as="targetPoint" />
          </mxGeometry>
        </mxCell>
        <mxCell id="pUqtmgYr6xLEjXZ_9hGm-62" style="edgeStyle=orthogonalEdgeStyle;rounded=0;orthogonalLoop=1;jettySize=auto;html=1;entryX=0.995;entryY=0.811;entryDx=0;entryDy=0;entryPerimeter=0;endArrow=ERzeroToMany;endFill=0;" parent="1" source="pUqtmgYr6xLEjXZ_9hGm-20" target="pUqtmgYr6xLEjXZ_9hGm-54" edge="1">
          <mxGeometry relative="1" as="geometry" />
        </mxCell>
        <mxCell id="VdupCttMGnILOW1PLu-P-14" style="edgeStyle=orthogonalEdgeStyle;rounded=0;orthogonalLoop=1;jettySize=auto;html=1;entryX=1;entryY=0.5;entryDx=0;entryDy=0;endArrow=ERzeroToMany;endFill=0;" parent="1" source="pUqtmgYr6xLEjXZ_9hGm-20" target="VdupCttMGnILOW1PLu-P-2" edge="1">
          <mxGeometry relative="1" as="geometry">
            <Array as="points">
              <mxPoint x="360" y="300" />
              <mxPoint x="360" y="231" />
            </Array>
          </mxGeometry>
        </mxCell>
        <mxCell id="pUqtmgYr6xLEjXZ_9hGm-20" value="manageProject" style="rhombus;whiteSpace=wrap;html=1;" parent="1" vertex="1">
          <mxGeometry x="514" y="260" width="80" height="80" as="geometry" />
        </mxCell>
        <mxCell id="pUqtmgYr6xLEjXZ_9hGm-24" value="The app records projects and issues from a single user. The container User List records all users.&lt;br&gt;1. The user can manage 0 or many projects. &lt;br&gt;&lt;span style=&quot;white-space: pre;&quot;&gt; &lt;/span&gt;The user can be added to the system without a project in it.&lt;br&gt;2. Each project has 1 user.&lt;br&gt;3.&amp;nbsp;A project can have 0 or many issues. Each issue belongs to 1 project.&lt;br&gt;4. An issue can be started and closed many times.&lt;br&gt;5. A project can be created, deleted or closed." style="text;html=1;strokeColor=none;fillColor=none;align=left;verticalAlign=middle;whiteSpace=wrap;rounded=0;" parent="1" vertex="1">
          <mxGeometry x="180" y="800" width="610" height="30" as="geometry" />
        </mxCell>
        <mxCell id="pUqtmgYr6xLEjXZ_9hGm-25" value="1" style="text;html=1;align=center;verticalAlign=middle;resizable=0;points=[];autosize=1;strokeColor=none;fillColor=none;" parent="1" vertex="1">
          <mxGeometry x="447" y="340" width="30" height="30" as="geometry" />
        </mxCell>
        <mxCell id="pUqtmgYr6xLEjXZ_9hGm-27" value="2" style="text;html=1;align=center;verticalAlign=middle;resizable=0;points=[];autosize=1;strokeColor=none;fillColor=none;" parent="1" vertex="1">
          <mxGeometry x="514" y="170" width="30" height="30" as="geometry" />
        </mxCell>
        <mxCell id="pUqtmgYr6xLEjXZ_9hGm-32" value="User" style="swimlane;fontStyle=0;childLayout=stackLayout;horizontal=1;startSize=26;horizontalStack=0;resizeParent=1;resizeParentMax=0;resizeLast=0;collapsible=1;marginBottom=0;align=center;fontSize=14;" parent="1" vertex="1">
          <mxGeometry x="394" y="4" width="136" height="146" as="geometry" />
        </mxCell>
        <mxCell id="pUqtmgYr6xLEjXZ_9hGm-33" value="id: Integer" style="text;strokeColor=none;fillColor=none;spacingLeft=4;spacingRight=4;overflow=hidden;rotatable=0;points=[[0,0.5],[1,0.5]];portConstraint=eastwest;fontSize=12;whiteSpace=wrap;html=1;" parent="pUqtmgYr6xLEjXZ_9hGm-32" vertex="1">
          <mxGeometry y="26" width="136" height="30" as="geometry" />
        </mxCell>
        <mxCell id="pUqtmgYr6xLEjXZ_9hGm-34" value="name: String" style="text;strokeColor=none;fillColor=none;spacingLeft=4;spacingRight=4;overflow=hidden;rotatable=0;points=[[0,0.5],[1,0.5]];portConstraint=eastwest;fontSize=12;whiteSpace=wrap;html=1;" parent="pUqtmgYr6xLEjXZ_9hGm-32" vertex="1">
          <mxGeometry y="56" width="136" height="30" as="geometry" />
        </mxCell>
        <mxCell id="pUqtmgYr6xLEjXZ_9hGm-35" value="email: String" style="text;strokeColor=none;fillColor=none;spacingLeft=4;spacingRight=4;overflow=hidden;rotatable=0;points=[[0,0.5],[1,0.5]];portConstraint=eastwest;fontSize=12;whiteSpace=wrap;html=1;" parent="pUqtmgYr6xLEjXZ_9hGm-32" vertex="1">
          <mxGeometry y="86" width="136" height="30" as="geometry" />
        </mxCell>
        <mxCell id="pUqtmgYr6xLEjXZ_9hGm-36" value="password: String" style="text;strokeColor=none;fillColor=none;spacingLeft=4;spacingRight=4;overflow=hidden;rotatable=0;points=[[0,0.5],[1,0.5]];portConstraint=eastwest;fontSize=12;whiteSpace=wrap;html=1;" parent="pUqtmgYr6xLEjXZ_9hGm-32" vertex="1">
          <mxGeometry y="116" width="136" height="30" as="geometry" />
        </mxCell>
        <mxCell id="pUqtmgYr6xLEjXZ_9hGm-39" value="Issue" style="swimlane;fontStyle=0;childLayout=stackLayout;horizontal=1;startSize=26;horizontalStack=0;resizeParent=1;resizeParentMax=0;resizeLast=0;collapsible=1;marginBottom=0;align=center;fontSize=14;" parent="1" vertex="1">
          <mxGeometry x="680" y="420" width="160" height="116" as="geometry" />
        </mxCell>
        <mxCell id="pUqtmgYr6xLEjXZ_9hGm-40" value="name: String" style="text;strokeColor=none;fillColor=none;spacingLeft=4;spacingRight=4;overflow=hidden;rotatable=0;points=[[0,0.5],[1,0.5]];portConstraint=eastwest;fontSize=12;whiteSpace=wrap;html=1;" parent="pUqtmgYr6xLEjXZ_9hGm-39" vertex="1">
          <mxGeometry y="26" width="160" height="30" as="geometry" />
        </mxCell>
        <mxCell id="pUqtmgYr6xLEjXZ_9hGm-41" value="description: String" style="text;strokeColor=none;fillColor=none;spacingLeft=4;spacingRight=4;overflow=hidden;rotatable=0;points=[[0,0.5],[1,0.5]];portConstraint=eastwest;fontSize=12;whiteSpace=wrap;html=1;" parent="pUqtmgYr6xLEjXZ_9hGm-39" vertex="1">
          <mxGeometry y="56" width="160" height="30" as="geometry" />
        </mxCell>
        <mxCell id="VdupCttMGnILOW1PLu-P-11" value="group: String" style="text;strokeColor=none;fillColor=none;spacingLeft=4;spacingRight=4;overflow=hidden;rotatable=0;points=[[0,0.5],[1,0.5]];portConstraint=eastwest;fontSize=12;whiteSpace=wrap;html=1;" parent="pUqtmgYr6xLEjXZ_9hGm-39" vertex="1">
          <mxGeometry y="86" width="160" height="30" as="geometry" />
        </mxCell>
        <mxCell id="pUqtmgYr6xLEjXZ_9hGm-46" value="Issue Time" style="swimlane;fontStyle=0;childLayout=stackLayout;horizontal=1;startSize=26;horizontalStack=0;resizeParent=1;resizeParentMax=0;resizeLast=0;collapsible=1;marginBottom=0;align=center;fontSize=14;" parent="1" vertex="1">
          <mxGeometry x="970" y="200" width="160" height="116" as="geometry" />
        </mxCell>
        <mxCell id="pUqtmgYr6xLEjXZ_9hGm-47" value="starting_date: Date" style="text;strokeColor=none;fillColor=none;spacingLeft=4;spacingRight=4;overflow=hidden;rotatable=0;points=[[0,0.5],[1,0.5]];portConstraint=eastwest;fontSize=12;whiteSpace=wrap;html=1;" parent="pUqtmgYr6xLEjXZ_9hGm-46" vertex="1">
          <mxGeometry y="26" width="160" height="30" as="geometry" />
        </mxCell>
        <mxCell id="pUqtmgYr6xLEjXZ_9hGm-48" value="deadline: Date" style="text;strokeColor=none;fillColor=none;spacingLeft=4;spacingRight=4;overflow=hidden;rotatable=0;points=[[0,0.5],[1,0.5]];portConstraint=eastwest;fontSize=12;whiteSpace=wrap;html=1;" parent="pUqtmgYr6xLEjXZ_9hGm-46" vertex="1">
          <mxGeometry y="56" width="160" height="30" as="geometry" />
        </mxCell>
        <mxCell id="pUqtmgYr6xLEjXZ_9hGm-49" value="closing_date: Date" style="text;strokeColor=none;fillColor=none;spacingLeft=4;spacingRight=4;overflow=hidden;rotatable=0;points=[[0,0.5],[1,0.5]];portConstraint=eastwest;fontSize=12;whiteSpace=wrap;html=1;" parent="pUqtmgYr6xLEjXZ_9hGm-46" vertex="1">
          <mxGeometry y="86" width="160" height="30" as="geometry" />
        </mxCell>
        <mxCell id="pUqtmgYr6xLEjXZ_9hGm-53" value="Project" style="swimlane;fontStyle=0;childLayout=stackLayout;horizontal=1;startSize=26;horizontalStack=0;resizeParent=1;resizeParentMax=0;resizeLast=0;collapsible=1;marginBottom=0;align=center;fontSize=14;" parent="1" vertex="1">
          <mxGeometry x="253" y="340" width="160" height="116" as="geometry" />
        </mxCell>
        <mxCell id="pUqtmgYr6xLEjXZ_9hGm-54" value="code: String" style="text;strokeColor=none;fillColor=none;spacingLeft=4;spacingRight=4;overflow=hidden;rotatable=0;points=[[0,0.5],[1,0.5]];portConstraint=eastwest;fontSize=12;whiteSpace=wrap;html=1;" parent="pUqtmgYr6xLEjXZ_9hGm-53" vertex="1">
          <mxGeometry y="26" width="160" height="30" as="geometry" />
        </mxCell>
        <mxCell id="VdupCttMGnILOW1PLu-P-5" value="name: String" style="text;strokeColor=none;fillColor=none;spacingLeft=4;spacingRight=4;overflow=hidden;rotatable=0;points=[[0,0.5],[1,0.5]];portConstraint=eastwest;fontSize=12;whiteSpace=wrap;html=1;" parent="pUqtmgYr6xLEjXZ_9hGm-53" vertex="1">
          <mxGeometry y="56" width="160" height="30" as="geometry" />
        </mxCell>
        <mxCell id="pUqtmgYr6xLEjXZ_9hGm-58" value="description: String" style="text;strokeColor=none;fillColor=none;spacingLeft=4;spacingRight=4;overflow=hidden;rotatable=0;points=[[0,0.5],[1,0.5]];portConstraint=eastwest;fontSize=12;whiteSpace=wrap;html=1;" parent="pUqtmgYr6xLEjXZ_9hGm-53" vertex="1">
          <mxGeometry y="86" width="160" height="30" as="geometry" />
        </mxCell>
        <mxCell id="pUqtmgYr6xLEjXZ_9hGm-64" value="4" style="text;html=1;align=center;verticalAlign=middle;resizable=0;points=[];autosize=1;strokeColor=none;fillColor=none;" parent="1" vertex="1">
          <mxGeometry x="740" y="670" width="30" height="30" as="geometry" />
        </mxCell>
        <mxCell id="pUqtmgYr6xLEjXZ_9hGm-65" value="3" style="text;html=1;align=center;verticalAlign=middle;resizable=0;points=[];autosize=1;strokeColor=none;fillColor=none;" parent="1" vertex="1">
          <mxGeometry x="575" y="415" width="30" height="30" as="geometry" />
        </mxCell>
        <mxCell id="VdupCttMGnILOW1PLu-P-1" value="Project Time" style="swimlane;fontStyle=0;childLayout=stackLayout;horizontal=1;startSize=26;horizontalStack=0;resizeParent=1;resizeParentMax=0;resizeLast=0;collapsible=1;marginBottom=0;align=center;fontSize=14;" parent="1" vertex="1">
          <mxGeometry x="60" y="190" width="160" height="116" as="geometry" />
        </mxCell>
        <mxCell id="VdupCttMGnILOW1PLu-P-2" value="starting_date: Date" style="text;strokeColor=none;fillColor=none;spacingLeft=4;spacingRight=4;overflow=hidden;rotatable=0;points=[[0,0.5],[1,0.5]];portConstraint=eastwest;fontSize=12;whiteSpace=wrap;html=1;" parent="VdupCttMGnILOW1PLu-P-1" vertex="1">
          <mxGeometry y="26" width="160" height="30" as="geometry" />
        </mxCell>
        <mxCell id="VdupCttMGnILOW1PLu-P-3" value="closing_date: Date" style="text;strokeColor=none;fillColor=none;spacingLeft=4;spacingRight=4;overflow=hidden;rotatable=0;points=[[0,0.5],[1,0.5]];portConstraint=eastwest;fontSize=12;whiteSpace=wrap;html=1;" parent="VdupCttMGnILOW1PLu-P-1" vertex="1">
          <mxGeometry y="56" width="160" height="30" as="geometry" />
        </mxCell>
        <mxCell id="VdupCttMGnILOW1PLu-P-4" value="deadline: Date" style="text;strokeColor=none;fillColor=none;spacingLeft=4;spacingRight=4;overflow=hidden;rotatable=0;points=[[0,0.5],[1,0.5]];portConstraint=eastwest;fontSize=12;whiteSpace=wrap;html=1;" parent="VdupCttMGnILOW1PLu-P-1" vertex="1">
          <mxGeometry y="86" width="160" height="30" as="geometry" />
        </mxCell>
        <mxCell id="VdupCttMGnILOW1PLu-P-10" value="5" style="text;html=1;align=center;verticalAlign=middle;resizable=0;points=[];autosize=1;strokeColor=none;fillColor=none;" parent="1" vertex="1">
          <mxGeometry x="364" y="266" width="30" height="30" as="geometry" />
        </mxCell>
        <mxCell id="ye53JMKQ58qqKMSwKMWF-1" value="Priority" style="shape=table;startSize=30;container=1;collapsible=1;childLayout=tableLayout;fixedRows=1;rowLines=0;fontStyle=1;align=center;resizeLast=1;html=1;" vertex="1" parent="1">
          <mxGeometry x="1190" y="456" width="180" height="90" as="geometry" />
        </mxCell>
        <mxCell id="ye53JMKQ58qqKMSwKMWF-2" value="" style="shape=tableRow;horizontal=0;startSize=0;swimlaneHead=0;swimlaneBody=0;fillColor=none;collapsible=0;dropTarget=0;points=[[0,0.5],[1,0.5]];portConstraint=eastwest;top=0;left=0;right=0;bottom=1;" vertex="1" parent="ye53JMKQ58qqKMSwKMWF-1">
          <mxGeometry y="30" width="180" height="30" as="geometry" />
        </mxCell>
        <mxCell id="ye53JMKQ58qqKMSwKMWF-3" value="PK" style="shape=partialRectangle;connectable=0;fillColor=none;top=0;left=0;bottom=0;right=0;fontStyle=1;overflow=hidden;whiteSpace=wrap;html=1;" vertex="1" parent="ye53JMKQ58qqKMSwKMWF-2">
          <mxGeometry width="30" height="30" as="geometry">
            <mxRectangle width="30" height="30" as="alternateBounds" />
          </mxGeometry>
        </mxCell>
        <mxCell id="ye53JMKQ58qqKMSwKMWF-4" value="id" style="shape=partialRectangle;connectable=0;fillColor=none;top=0;left=0;bottom=0;right=0;align=left;spacingLeft=6;fontStyle=5;overflow=hidden;whiteSpace=wrap;html=1;" vertex="1" parent="ye53JMKQ58qqKMSwKMWF-2">
          <mxGeometry x="30" width="150" height="30" as="geometry">
            <mxRectangle width="150" height="30" as="alternateBounds" />
          </mxGeometry>
        </mxCell>
        <mxCell id="ye53JMKQ58qqKMSwKMWF-5" value="" style="shape=tableRow;horizontal=0;startSize=0;swimlaneHead=0;swimlaneBody=0;fillColor=none;collapsible=0;dropTarget=0;points=[[0,0.5],[1,0.5]];portConstraint=eastwest;top=0;left=0;right=0;bottom=0;" vertex="1" parent="ye53JMKQ58qqKMSwKMWF-1">
          <mxGeometry y="60" width="180" height="30" as="geometry" />
        </mxCell>
        <mxCell id="ye53JMKQ58qqKMSwKMWF-6" value="" style="shape=partialRectangle;connectable=0;fillColor=none;top=0;left=0;bottom=0;right=0;editable=1;overflow=hidden;whiteSpace=wrap;html=1;" vertex="1" parent="ye53JMKQ58qqKMSwKMWF-5">
          <mxGeometry width="30" height="30" as="geometry">
            <mxRectangle width="30" height="30" as="alternateBounds" />
          </mxGeometry>
        </mxCell>
        <mxCell id="ye53JMKQ58qqKMSwKMWF-7" value="name" style="shape=partialRectangle;connectable=0;fillColor=none;top=0;left=0;bottom=0;right=0;align=left;spacingLeft=6;overflow=hidden;whiteSpace=wrap;html=1;" vertex="1" parent="ye53JMKQ58qqKMSwKMWF-5">
          <mxGeometry x="30" width="150" height="30" as="geometry">
            <mxRectangle width="150" height="30" as="alternateBounds" />
          </mxGeometry>
        </mxCell>
        <mxCell id="ye53JMKQ58qqKMSwKMWF-17" style="edgeStyle=orthogonalEdgeStyle;rounded=0;orthogonalLoop=1;jettySize=auto;html=1;entryX=0;entryY=0.5;entryDx=0;entryDy=0;endArrow=ERmandOne;endFill=0;" edge="1" parent="1" source="ye53JMKQ58qqKMSwKMWF-14" target="ye53JMKQ58qqKMSwKMWF-2">
          <mxGeometry relative="1" as="geometry" />
        </mxCell>
        <mxCell id="ye53JMKQ58qqKMSwKMWF-18" style="edgeStyle=orthogonalEdgeStyle;rounded=0;orthogonalLoop=1;jettySize=auto;html=1;entryX=1;entryY=0.733;entryDx=0;entryDy=0;entryPerimeter=0;endArrow=ERoneToMany;endFill=0;" edge="1" parent="1" source="ye53JMKQ58qqKMSwKMWF-14" target="pUqtmgYr6xLEjXZ_9hGm-41">
          <mxGeometry relative="1" as="geometry" />
        </mxCell>
        <mxCell id="ye53JMKQ58qqKMSwKMWF-14" value="has" style="rhombus;whiteSpace=wrap;html=1;" vertex="1" parent="1">
          <mxGeometry x="990" y="476" width="80" height="80" as="geometry" />
        </mxCell>
      </root>
    </mxGraphModel>
  </diagram>
</mxfile>
